<svg width="20" height="25" viewBox="0 0 20 25" fill="none" xmlns="http://www.w3.org/2000/svg">
<g clip-path="url(#clip0_993_386)">
<path d="M5.30503 17.7045C4.87505 17.2802 5.09919 17.3998 4.06211 17.1259C3.59156 17.0014 3.17792 16.7621 2.80385 16.4755L0.558984 21.9071C0.341771 22.433 0.7475 23.0043 1.32245 22.9828L3.92951 22.8847L5.72263 24.7538C6.11846 25.1659 6.81315 25.0375 7.03037 24.5116L9.60576 18.2802C9.0694 18.5751 8.47417 18.7479 7.85865 18.7479C6.8938 18.7479 5.98734 18.3773 5.30503 17.7045ZM19.4402 21.9071L17.1954 16.4755C16.8213 16.7626 16.4077 17.0014 15.9371 17.1259C14.8946 17.4013 15.1232 17.2812 14.6942 17.7045C14.0119 18.3773 13.1049 18.7479 12.1401 18.7479C11.5246 18.7479 10.9293 18.5746 10.393 18.2802L12.9684 24.5116C13.1856 25.0375 13.8808 25.1659 14.2761 24.7538L16.0697 22.8847L18.6768 22.9828C19.2517 23.0043 19.6575 22.4325 19.4402 21.9071ZM13.5126 16.5995C14.2687 15.8402 14.3553 15.9057 15.4319 15.6161C16.1192 15.4311 16.6565 14.8915 16.8406 14.2011C17.2107 12.8144 17.1147 12.9818 18.1246 11.9672C18.6278 11.4618 18.8242 10.725 18.6402 10.0346C18.2706 8.64883 18.2701 8.84219 18.6402 7.45498C18.8242 6.76455 18.6278 6.02774 18.1246 5.52237C17.1147 4.50772 17.2107 4.67471 16.8406 3.28848C16.6565 2.59805 16.1192 2.0585 15.4319 1.87344C14.0525 1.50186 14.2187 1.59903 13.2078 0.58389C12.7046 0.0785187 11.9709 -0.119235 11.2836 0.0658234C9.90461 0.436917 10.0971 0.437405 8.71563 0.0658234C8.02836 -0.119235 7.29458 0.0780304 6.79138 0.58389C5.78151 1.59854 5.94776 1.50186 4.56779 1.87344C3.88052 2.0585 3.34318 2.59805 3.15912 3.28848C2.78951 4.67471 2.885 4.50772 1.87513 5.52237C1.37193 6.02774 1.175 6.76455 1.35956 7.45498C1.72917 8.83975 1.72966 8.64639 1.35956 10.0341C1.17549 10.7245 1.37193 11.4613 1.87513 11.9672C2.885 12.9818 2.78901 12.8144 3.15912 14.2011C3.34318 14.8915 3.88052 15.4311 4.56779 15.6161C5.67513 15.914 5.75776 15.8671 6.48659 16.5995C7.1412 17.2572 8.16096 17.3749 8.94768 16.8837C9.26228 16.6866 9.62722 16.5819 9.99986 16.5819C10.3725 16.5819 10.7374 16.6866 11.052 16.8837C11.8383 17.3749 12.858 17.2572 13.5126 16.5995ZM5.33175 8.58975C5.33175 6.00039 7.42175 3.90127 9.99961 3.90127C12.5775 3.90127 14.6675 6.00039 14.6675 8.58975C14.6675 11.1791 12.5775 13.2782 9.99961 13.2782C7.42175 13.2782 5.33175 11.1791 5.33175 8.58975Z" fill="#FFA62B"/>
</g>
<defs>
<clipPath id="clip0_993_386">
<rect width="19" height="25" fill="white" transform="translate(0.5)"/>
</clipPath>
</defs>
</svg>
