<svg width="29" height="27" viewBox="0 0 29 27" fill="none" xmlns="http://www.w3.org/2000/svg">
<g clip-path="url(#clip0_993_377)">
<path d="M14.4039 12.7042C17.0044 12.7042 19.0269 10.5695 19.0269 7.94969C19.0269 5.32987 16.908 3.29224 14.3076 3.29224C11.7071 3.29224 9.68457 5.4269 9.68457 7.94969C9.68457 10.5695 11.8035 12.7042 14.4039 12.7042ZM14.3076 5.23284C14.4039 5.23284 14.4039 5.23284 14.3076 5.23284C15.8486 5.23284 17.1007 6.49423 17.1007 8.04672C17.1007 9.5992 15.8486 10.7636 14.3076 10.7636C12.7666 10.7636 11.6108 9.50217 11.6108 8.04672C11.6108 6.49423 12.8629 5.23284 14.3076 5.23284Z" fill="#FFA62B"/>
<path d="M28.658 12.1218C26.8281 10.4723 24.4203 9.59899 21.9161 9.69602H21.1456C20.953 10.4723 20.6641 11.1515 20.2788 11.7337C20.8567 11.6366 21.3383 11.6366 21.9161 11.6366C23.7461 11.5396 25.576 12.1218 27.0207 13.1891V20.1753H28.947V12.4129L28.658 12.1218Z" fill="#FFA62B"/>
<path d="M19.7009 3.4859C20.1825 2.32154 21.5309 1.73936 22.7829 2.22451C23.9387 2.70966 24.5166 4.06808 24.035 5.32947C23.6498 6.20275 22.7829 6.78493 21.9161 6.78493C21.7235 6.78493 21.4346 6.78493 21.2419 6.6879C21.3382 7.17305 21.3382 7.6582 21.3382 8.04632V8.6285C21.5309 8.6285 21.7235 8.72553 21.9161 8.72553C24.3239 8.72553 26.2502 6.78493 26.2502 4.4562C26.2502 2.03045 24.3239 0.0898438 22.0124 0.0898438C20.4714 0.0898438 19.123 0.866085 18.3525 2.22451C18.8341 2.5156 19.3157 2.90372 19.7009 3.4859Z" fill="#FFA62B"/>
<path d="M8.72139 11.8308C8.33614 11.2487 8.0472 10.5694 7.85457 9.7932H7.08407C4.57993 9.69617 2.17211 10.5694 0.342161 12.1219L0.0532227 12.413V20.1754H1.97948V13.1893C3.52049 12.1219 5.25412 11.5397 7.08407 11.6368C7.66195 11.6368 8.23982 11.7338 8.72139 11.8308Z" fill="#FFA62B"/>
<path d="M7.08371 8.62891C7.27634 8.62891 7.46896 8.62891 7.66159 8.53187V7.94969C7.66159 7.46454 7.66159 6.97939 7.7579 6.59127C7.56528 6.6883 7.27634 6.6883 7.08371 6.6883C5.83165 6.6883 4.7722 5.62097 4.7722 4.35957C4.7722 3.09818 5.83165 2.03085 7.08371 2.03085C8.04684 2.03085 8.91366 2.61303 9.29891 3.4863C9.68416 3.00115 10.262 2.516 10.7436 2.12788C9.49154 0.0902441 6.89109 -0.588968 4.86852 0.672425C2.84595 1.93382 2.17176 4.55363 3.42382 6.59127C4.19433 7.85266 5.54271 8.62891 7.08371 8.62891Z" fill="#FFA62B"/>
<path d="M22.3013 17.9437L22.1087 17.6526C20.1824 15.518 17.4857 14.2566 14.5963 14.3536C11.7069 14.2566 8.91381 15.518 6.98755 17.6526L6.79492 17.9437V25.318C6.79492 26.1913 7.46911 26.9675 8.43224 26.9675H20.7603C21.6271 26.9675 22.3976 26.1913 22.3976 25.318V17.9437H22.3013ZM20.375 25.0269H8.72118V18.6229C10.2622 17.0705 12.3811 16.2942 14.5963 16.2942C16.7152 16.1972 18.834 17.0705 20.375 18.6229V25.0269Z" fill="#FFA62B"/>
</g>
<defs>
<clipPath id="clip0_993_377">
<rect width="29" height="27" fill="white"/>
</clipPath>
</defs>
</svg>
